<?xml version="1.0" standalone="no"?>
<!DOCTYPE svg PUBLIC "-//W3C//DTD SVG 20010904//EN"
 "http://www.w3.org/TR/2001/REC-SVG-20010904/DTD/svg10.dtd">
<svg version="1.0" xmlns="http://www.w3.org/2000/svg"
 width="260.000000pt" height="260.000000pt" viewBox="0 0 260.000000 260.000000"
 preserveAspectRatio="xMidYMid meet">
<metadata>
Created by potrace 1.11, written by Peter Selinger 2001-2013
</metadata>
<g transform="translate(0.000000,260.000000) scale(0.100000,-0.100000)"
fill="#000000" stroke="none">
<path d="M943 2370 c-49 -11 -94 -42 -114 -80 -21 -37 -112 -230 -154 -326
-42 -95 -29 -163 39 -199 36 -19 68 -17 161 10 18 5 23 -1 37 -43 l15 -49 -51
-18 c-134 -47 -174 -126 -132 -259 l22 -71 -49 -17 -49 -17 -15 37 c-8 20 -19
47 -24 59 -12 31 -67 63 -108 63 -54 0 -96 -33 -129 -103 -149 -314 -165 -353
-164 -391 3 -62 42 -119 104 -149 371 -179 397 -188 461 -148 56 35 72 96 42
168 -22 52 -20 58 33 75 l48 15 23 -58 c52 -134 128 -170 259 -123 l63 22 9
-22 c33 -84 33 -76 -8 -92 -68 -27 -85 -39 -104 -69 -22 -37 -23 -77 -1 -122
14 -31 34 -44 177 -113 257 -124 254 -123 311 -118 64 5 107 36 136 97 48 102
113 239 140 299 46 100 34 170 -38 209 -32 17 -67 15 -159 -12 -18 -6 -23 0
-36 40 l-16 46 27 13 c14 7 37 17 51 21 42 12 91 56 110 97 20 45 17 99 -10
170 -20 52 -20 52 40 73 l40 14 29 -64 c32 -69 65 -95 122 -95 51 0 92 33 126
102 167 336 184 396 140 472 -24 41 -49 58 -192 123 -49 23 -124 58 -166 77
-80 37 -134 45 -172 24 -66 -35 -82 -92 -51 -182 9 -26 15 -48 13 -50 -2 -1
-23 -9 -47 -18 l-42 -16 -34 73 c-56 120 -128 152 -251 110 l-67 -22 -10 26
c-5 14 -14 36 -19 49 -8 20 -3 25 55 51 70 32 96 65 96 122 0 72 -28 94 -250
197 -216 100 -221 102 -267 92z m233 -167 c246 -115 257 -135 104 -189 -44
-15 -80 -31 -80 -35 0 -13 81 -234 88 -241 4 -4 48 8 99 26 98 35 136 37 164
9 9 -10 31 -58 48 -107 17 -50 33 -92 36 -94 3 -4 80 22 232 79 l22 8 -32 90
c-26 75 -29 91 -18 105 7 9 22 16 32 16 29 0 382 -168 402 -191 32 -39 32 -39
-106 -331 -78 -165 -108 -169 -158 -18 -12 38 -26 70 -30 70 -13 0 -234 -81
-241 -88 -4 -4 6 -43 22 -87 38 -98 42 -148 15 -174 -11 -10 -62 -33 -112 -51
-51 -18 -93 -35 -93 -39 0 -6 58 -171 79 -223 l10 -27 90 31 c75 26 93 29 106
18 28 -23 24 -35 -105 -307 -57 -119 -77 -143 -119 -143 -11 0 -104 39 -207
87 -246 115 -256 132 -105 188 45 17 81 34 81 39 0 13 -81 230 -89 239 -4 4
-49 -8 -101 -27 -97 -37 -136 -38 -163 -7 -8 9 -29 56 -46 105 -17 50 -33 92
-36 94 -3 3 -135 -41 -227 -77 l-27 -10 32 -89 c27 -76 29 -92 18 -106 -24
-29 -23 -30 -318 109 -146 69 -155 86 -104 197 119 259 150 316 172 323 31 10
50 -16 80 -105 12 -38 26 -70 31 -70 12 0 232 81 240 89 4 4 -4 38 -18 76 -63
171 -59 181 90 234 49 17 91 33 94 36 3 2 -5 30 -17 62 -12 32 -21 60 -21 63
0 3 -11 32 -25 65 -28 68 -24 68 -128 28 -52 -20 -73 -24 -85 -16 -36 22 -33
32 94 299 62 131 79 153 121 154 12 0 106 -39 209 -87z"/>
</g>
</svg>
