<?xml version="1.0" encoding="UTF-8"?>
<svg xmlns="http://www.w3.org/2000/svg" version="1.1" baseProfile="tiny" viewBox="0 0 48 48">

  <path d="m 22,2 0,5 0,13 -7,-7 -3,3 8,8 -8,8 3,3 7,-7 0,18 L 35,33 26,24 35,15 22,2 z m 4,10 3,3 -3,3 0,-6 z m 0,18 3,3 -3,3 0,-6 z" stroke="#404040" stroke-width="2" opacity="0.4"/>
  <path d="m 22,3 0,5 0,13 -7,-7 -3,3 8,8 -8,8 3,3 7,-7 0,18 L 35,34 26,25 35,16 22,3 z m 4,10 3,3 -3,3 0,-6 z m 0,18 3,3 -3,3 0,-6 z" fill="#808080" opacity="0.8"/>
  <path d="m 22,2 0,5 0,13 -7,-7 -3,3 8,8 -8,8 3,3 7,-7 0,18 L 35,33 26,24 35,15 22,2 z m 4,10 3,3 -3,3 0,-6 z m 0,18 3,3 -3,3 0,-6 z" fill="#ffffff"/>

</svg>
