<?xml version="1.0" encoding="UTF-8"?>
<svg xmlns="http://www.w3.org/2000/svg" version="1.1" baseProfile="tiny" viewBox="0 0 48 48">

  <path d="m 43.79899,16.20101 c -10.93468,-10.93468 -28.6633,-10.93468 -39.5979799,0 -0.7810482,0.781048 -0.7810486,2.047379 0,2.828427 0.7810486,0.781049 2.0473789,0.781048 2.8284272,0 9.3725827,-9.372583 24.5685427,-9.372583 33.9411257,0 0.781048,0.781048 2.047379,0.781048 2.828427,0 0.781048,-0.781048 0.781048,-2.047379 0,-2.828427 z m -5.656854,5.656854 c -7.810486,-7.810485 -20.473786,-7.810485 -28.2842716,0 -0.7810483,0.781049 -0.7810486,2.047379 0,2.828428 0.7810486,0.781048 2.0473786,0.781048 2.8284276,0 6.248388,-6.248389 16.379028,-6.248389 22.627416,0 0.781049,0.781048 2.047379,0.781048 2.828428,0 0.781048,-0.781049 0.781048,-2.047379 0,-2.828428 z m -5.656855,5.656855 c -0.09763,-0.09763 -0.198458,-0.191942 -0.309359,-0.265165 -4.704996,-4.397093 -12.072671,-4.323368 -16.661203,0.265165 -0.781049,0.781048 -0.781049,2.047379 0,2.828427 0.781048,0.781048 2.047379,0.781048 2.828427,0 3.124194,-3.124195 8.189514,-3.124195 11.313708,0 0.781048,0.781048 2.047379,0.781048 2.828427,0 0.781049,-0.781048 0.781049,-2.047379 0,-2.828427 z m -5.656854,5.656854 c -1.562097,-1.562097 -4.094757,-1.562097 -5.656854,0 -1.562097,1.562097 -1.562097,4.094757 0,5.656854 1.562097,1.562097 4.094757,1.562097 5.656854,0 1.562097,-1.562097 1.562097,-4.094757 0,-5.656854 z" stroke="#404040" stroke-width="2" opacity="0.4"/>
  <path d="m 43.79899,17.20101 c -10.93468,-10.93468 -28.6633,-10.93468 -39.5979799,0 -0.7810482,0.781048 -0.7810486,2.047379 0,2.828427 0.7810486,0.781049 2.0473789,0.781048 2.8284272,0 9.3725827,-9.372583 24.5685427,-9.372583 33.9411257,0 0.781048,0.781048 2.047379,0.781048 2.828427,0 0.781048,-0.781048 0.781048,-2.047379 0,-2.828427 z m -5.656854,5.656854 c -7.810486,-7.810485 -20.473786,-7.810485 -28.2842716,0 -0.7810483,0.781049 -0.7810486,2.047379 0,2.828428 0.7810486,0.781048 2.0473786,0.781048 2.8284276,0 6.248388,-6.248389 16.379028,-6.248389 22.627416,0 0.781049,0.781048 2.047379,0.781048 2.828428,0 0.781048,-0.781049 0.781048,-2.047379 0,-2.828428 z m -5.656855,5.656855 c -0.09763,-0.09763 -0.198458,-0.191942 -0.309359,-0.265165 -4.704996,-4.397093 -12.072671,-4.323368 -16.661203,0.265165 -0.781049,0.781048 -0.781049,2.047379 0,2.828427 0.781048,0.781048 2.047379,0.781048 2.828427,0 3.124194,-3.124195 8.189514,-3.124195 11.313708,0 0.781048,0.781048 2.047379,0.781048 2.828427,0 0.781049,-0.781048 0.781049,-2.047379 0,-2.828427 z m -5.656854,5.656854 c -1.562097,-1.562097 -4.094757,-1.562097 -5.656854,0 -1.562097,1.562097 -1.562097,4.094757 0,5.656854 1.562097,1.562097 4.094757,1.562097 5.656854,0 1.562097,-1.562097 1.562097,-4.094757 0,-5.656854 z" fill="#808080" opacity="0.8"/>
  <path d="m 43.79899,16.20101 c -10.93468,-10.93468 -28.6633,-10.93468 -39.5979799,0 -0.7810482,0.781048 -0.7810486,2.047379 0,2.828427 0.7810486,0.781049 2.0473789,0.781048 2.8284272,0 9.3725827,-9.372583 24.5685427,-9.372583 33.9411257,0 0.781048,0.781048 2.047379,0.781048 2.828427,0 0.781048,-0.781048 0.781048,-2.047379 0,-2.828427 z m -5.656854,5.656854 c -7.810486,-7.810485 -20.473786,-7.810485 -28.2842716,0 -0.7810483,0.781049 -0.7810486,2.047379 0,2.828428 0.7810486,0.781048 2.0473786,0.781048 2.8284276,0 6.248388,-6.248389 16.379028,-6.248389 22.627416,0 0.781049,0.781048 2.047379,0.781048 2.828428,0 0.781048,-0.781049 0.781048,-2.047379 0,-2.828428 z m -5.656855,5.656855 c -0.09763,-0.09763 -0.198458,-0.191942 -0.309359,-0.265165 -4.704996,-4.397093 -12.072671,-4.323368 -16.661203,0.265165 -0.781049,0.781048 -0.781049,2.047379 0,2.828427 0.781048,0.781048 2.047379,0.781048 2.828427,0 3.124194,-3.124195 8.189514,-3.124195 11.313708,0 0.781048,0.781048 2.047379,0.781048 2.828427,0 0.781049,-0.781048 0.781049,-2.047379 0,-2.828427 z m -5.656854,5.656854 c -1.562097,-1.562097 -4.094757,-1.562097 -5.656854,0 -1.562097,1.562097 -1.562097,4.094757 0,5.656854 1.562097,1.562097 4.094757,1.562097 5.656854,0 1.562097,-1.562097 1.562097,-4.094757 0,-5.656854 z" fill="#ffffff"/>

</svg>
